<?xml version="1.0" encoding="UTF-8" standalone="no"?>
<!DOCTYPE svg PUBLIC "-//W3C//DTD SVG 1.1//EN" "http://www.w3.org/Graphics/SVG/1.1/DTD/svg11.dtd">
<svg version="1.1" xmlns="http://www.w3.org/2000/svg" xmlns:xlink="http://www.w3.org/1999/xlink" preserveAspectRatio="xMidYMid meet" viewBox="0 0 6 10" width="6" height="10"><defs><path d="M1.15 9.75C1.46 9.75 1.76 9.63 1.97 9.41C2.34 9.04 5.29 6.09 5.66 5.72C5.88 5.5 6 5.2 6 4.9C6 4.88 6 4.87 6 4.86C6.01 4.54 5.89 4.23 5.66 4C5.29 3.63 2.34 0.69 1.97 0.32C1.51 -0.12 0.78 -0.1 0.34 0.36C-0.09 0.81 -0.09 1.51 0.34 1.95C0.53 2.15 1.5 3.12 3.25 4.86C1.5 6.61 0.53 7.58 0.34 7.77C0.12 7.99 0 8.28 0 8.59C0 9.23 0.51 9.75 1.15 9.75Z" id="c1DSQxebNv"></path></defs><g><g><g><use xlink:href="#c1DSQxebNv" opacity="1" fill="#747474" fill-opacity="1"></use><g><use xlink:href="#c1DSQxebNv" opacity="1" fill-opacity="0" stroke="#000000" stroke-width="1" stroke-opacity="0"></use></g></g></g></g></svg>