<?xml version="1.0" encoding="UTF-8" standalone="no"?>
<!DOCTYPE svg PUBLIC "-//W3C//DTD SVG 1.1//EN" "http://www.w3.org/Graphics/SVG/1.1/DTD/svg11.dtd">
<svg version="1.1" xmlns="http://www.w3.org/2000/svg" xmlns:xlink="http://www.w3.org/1999/xlink" preserveAspectRatio="xMidYMid meet" viewBox="0 0 20 23" width="20" height="23"><defs><path d="M16.52 4.59C15.42 3.75 14.62 2.51 14.34 1.09C14.27 0.74 14.24 0.37 14.23 0C13.98 0 12.75 0 10.52 0L10.52 10.26C10.51 13.63 10.51 15.51 10.51 15.88C10.51 17.39 9.54 18.66 8.2 19.11C7.81 19.24 7.39 19.3 6.95 19.27C6.39 19.24 5.87 19.07 5.41 18.8C4.44 18.21 3.79 17.15 3.77 15.93C3.74 14.03 5.26 12.48 7.14 12.48C7.51 12.48 7.87 12.55 8.2 12.66C8.2 12.47 8.2 11.54 8.2 9.85C8.2 9.25 8.2 8.91 8.2 8.84C7.85 8.79 7.49 8.76 7.13 8.76C5.07 8.76 3.15 9.63 1.77 11.18C0.73 12.36 0.11 13.86 0.01 15.43C-0.11 17.5 0.64 19.47 2.09 20.92C2.3 21.13 2.53 21.33 2.76 21.51C4 22.48 5.53 23 7.13 23C7.49 23 7.85 22.97 8.2 22.92C9.7 22.7 11.08 22 12.17 20.92C13.51 19.58 14.25 17.8 14.26 15.91C14.25 15.07 14.24 8.36 14.24 7.52C14.88 8.02 15.57 8.43 16.32 8.75C17.49 9.25 18.73 9.5 20 9.5C20 9.31 20 8.41 20 6.77C20 6.16 20 5.83 20 5.76C20 5.76 19.99 5.76 19.99 5.76C18.69 5.76 17.49 5.32 16.52 4.59Z" id="aSAFRECq1"></path></defs><g><g><g><use xlink:href="#aSAFRECq1" opacity="1" fill="#ffffff" fill-opacity="1"></use><g><use xlink:href="#aSAFRECq1" opacity="1" fill-opacity="0" stroke="#000000" stroke-width="1" stroke-opacity="0"></use></g></g></g></g></svg>